<svg width="70" height="54" viewBox="0 0 70 54" fill="none" xmlns="http://www.w3.org/2000/svg">
<g clip-path="url(#clip0_966_1532)">
<path d="M1.30802 46.0457L11.4053 0.4217L20.3333 2.39759L18.9953 8.4433L25.1816 9.81242L23.8591 15.7878L30.1157 17.1725L26.1328 35.169L29.5775 35.9314L36.2208 5.91375L45.2191 7.9052L35.1218 53.5292L26.1236 51.5378L27.446 45.5624L21.2597 44.1932L22.5977 38.1475L16.3411 36.7628L20.324 18.7663L16.8793 18.004L10.236 48.0216L1.30802 46.0457Z" fill="#0A0A0A"/>
<path d="M42.5904 53C42.4224 53 42.2824 52.944 42.1704 52.832C42.0584 52.72 42.0024 52.58 42.0024 52.412V34.184C42.0024 33.848 42.1144 33.568 42.3384 33.344C42.581 33.1013 42.8704 32.98 43.2064 32.98H52.7544C52.9224 32.98 53.0624 33.036 53.1744 33.148C53.2864 33.26 53.3424 33.4 53.3424 33.568V35.668C53.3424 35.836 53.2864 35.976 53.1744 36.088C53.0624 36.2 52.9224 36.256 52.7544 36.256H45.4184V41.492H50.8784C51.0464 41.492 51.1864 41.548 51.2984 41.66C51.4104 41.772 51.4664 41.912 51.4664 42.08V44.068C51.4664 44.236 51.4104 44.376 51.2984 44.488C51.1864 44.6 51.0464 44.656 50.8784 44.656H45.4184V52.412C45.4184 52.58 45.3624 52.72 45.2504 52.832C45.1384 52.944 44.9984 53 44.8304 53H42.5904ZM61.8848 53C61.7168 53 61.5768 52.944 61.4648 52.832C61.3528 52.72 61.2968 52.58 61.2968 52.412V36.256H56.5928C56.4248 36.256 56.2848 36.2 56.1728 36.088C56.0608 35.976 56.0048 35.836 56.0048 35.668V33.568C56.0048 33.4 56.0608 33.26 56.1728 33.148C56.2848 33.036 56.4248 32.98 56.5928 32.98H69.4168C69.5848 32.98 69.7248 33.036 69.8368 33.148C69.9488 33.26 70.0048 33.4 70.0048 33.568V35.668C70.0048 35.836 69.9488 35.976 69.8368 36.088C69.7248 36.2 69.5848 36.256 69.4168 36.256H64.7128V52.412C64.7128 52.58 64.6568 52.72 64.5448 52.832C64.4328 52.944 64.2928 53 64.1248 53H61.8848Z" fill="#0A0A0A"/>
</g>
<defs>
<clipPath id="clip0_966_1532">
<rect width="70" height="54" fill="white"/>
</clipPath>
</defs>
</svg>
