<svg width="314" height="299" viewBox="0 0 314 299" fill="none" xmlns="http://www.w3.org/2000/svg">
<path d="M125.405 103.157L107.291 78.4395L149.575 97.854L188.436 45.4522L206.539 70.1547L192.041 89.7189L167.678 122.556L125.405 103.157Z" fill="url(#paint0_linear_201_25545)" stroke="#1D1D1B" stroke-width="3" stroke-linecap="round" stroke-linejoin="round"/>
<path d="M64.9594 164.327L46.857 139.624L111.882 122.926L107.291 78.4395L125.405 103.157L129.984 147.628L89.2326 158.102L64.9594 164.327Z" fill="#48EFCA" stroke="#1D1D1B" stroke-width="3" stroke-linecap="round" stroke-linejoin="round"/>
<path d="M76.3212 168.216L64.9594 164.327L89.2326 158.102L129.984 147.628L125.405 103.157L167.677 122.556L192.041 89.7186L206.538 70.1545L206.44 81.6671L206.23 116.642L222.981 107.296L270.39 80.8115L249.448 106.188L236.709 121.62L227.666 132.574L287.071 130.117L223.741 162.029L221.885 162.972L227.975 170.188L248.777 195.003L191.666 193.577L173.423 245.126L156.162 218L151.096 210.058L149.559 211.371L96.2918 257.015L119.183 204.731L105.274 209.045L85.6785 215.121L53.4571 225.106L95.8742 191.842L110.856 180.081L76.3212 168.216Z" fill="white" stroke="#1D1D1B" stroke-width="3" stroke-linecap="round" stroke-linejoin="round"/>
<path d="M206.23 116.642L206.44 81.6671L252.277 56.0939L270.39 80.8115L222.981 107.296L206.23 116.642Z" fill="url(#paint1_linear_201_25545)" stroke="#1D1D1B" stroke-width="3" stroke-linecap="round" stroke-linejoin="round"/>
<path d="M53.4571 225.105L35.3437 200.388L76.3213 168.216L110.856 180.08L95.8742 191.841L53.4571 225.105Z" fill="#48EFCA" stroke="#1D1D1B" stroke-width="3" stroke-linecap="round" stroke-linejoin="round"/>
<path d="M227.666 132.574L236.709 121.621L249.449 106.189L268.936 105.37L287.072 130.118L227.666 132.574Z" fill="url(#paint2_linear_201_25545)" stroke="#1D1D1B" stroke-width="3" stroke-linecap="round" stroke-linejoin="round"/>
<path d="M96.292 257.015L78.1564 232.268L85.6787 215.121L105.275 209.045L119.183 204.731L96.292 257.015Z" fill="#48EFCA" stroke="#1D1D1B" stroke-width="3" stroke-linecap="round" stroke-linejoin="round"/>
<defs>
<linearGradient id="paint0_linear_201_25545" x1="163.074" y1="33.6219" x2="177.805" y2="130.706" gradientUnits="userSpaceOnUse">
<stop stop-color="#E1F5DC"/>
<stop offset="1" stop-color="#48EDC8"/>
</linearGradient>
<linearGradient id="paint1_linear_201_25545" x1="238.341" y1="56.6333" x2="254.868" y2="106.132" gradientUnits="userSpaceOnUse">
<stop stop-color="#E1F5DC"/>
<stop offset="1" stop-color="#48EDC8"/>
</linearGradient>
<linearGradient id="paint2_linear_201_25545" x1="254.224" y1="98.5323" x2="262.793" y2="154.925" gradientUnits="userSpaceOnUse">
<stop stop-color="#E1F5DC"/>
<stop offset="1" stop-color="#48EDC8"/>
</linearGradient>
</defs>
</svg>
