<svg width="68" height="68" viewBox="0 0 68 68" fill="none" xmlns="http://www.w3.org/2000/svg">
<path d="M34.7759 27.315C35.0879 27.135 35.3389 26.7 35.3379 26.345C35.3379 25.981 35.0839 25.837 34.7719 26.018L34.0399 26.44L34.0439 27.738L34.7759 27.315ZM34.9779 28.033L34.0039 28.596L34.0079 29.966L34.9819 29.404C35.3099 29.214 35.5759 28.757 35.5749 28.377C35.5739 28 35.3049 27.844 34.9779 28.033Z" fill="#007AFF"/>
<path d="M35.9362 20.6302C32.8052 22.4382 30.2762 26.8182 30.2862 30.4002C30.2962 33.9982 32.8422 35.4482 35.9732 33.6402C39.0982 31.8372 41.6272 27.4572 41.6162 23.8592C41.6062 20.2762 39.0612 18.8272 35.9362 20.6302ZM35.6092 29.6082L35.0962 29.9042L35.0982 30.8042L34.5682 31.1112L34.5652 30.2112L34.1882 30.4282L34.1912 31.3282L33.6632 31.6332L33.6602 30.7332L32.5732 31.3612L32.6992 30.6412L33.2152 30.3442L33.2052 26.9712L32.5832 27.3312L32.5822 26.7832L33.6472 26.1682L33.6442 25.1352L34.1732 24.8302L34.1762 25.8632L34.5522 25.6452L34.5492 24.6132L35.0802 24.3062L35.0832 25.3392L35.6052 25.0372C36.0942 24.7552 36.4952 24.9812 36.4972 25.5392C36.4992 26.1002 36.1002 26.7892 35.6112 27.0712C36.2152 26.7292 36.7022 27.0112 36.7042 27.7042C36.7062 28.4052 36.2162 29.2582 35.6092 29.6082Z" fill="#007AFF"/>
<path d="M57.6771 46.0882L53.6341 43.7502L53.6481 40.2302V40.2232L53.6461 40.2192V40.2182C53.6461 39.7782 53.3661 39.3682 52.8561 39.0782L45.6041 34.8832L56.9341 18.6682C56.9529 18.6413 56.9663 18.6109 56.9734 18.5788C56.9805 18.5467 56.9812 18.5136 56.9755 18.4812C56.9698 18.4488 56.9577 18.4179 56.9401 18.3902C56.9224 18.3625 56.8995 18.3385 56.8726 18.3197C56.8456 18.3008 56.8153 18.2875 56.7832 18.2804C56.7511 18.2733 56.7179 18.2725 56.6856 18.2783C56.6532 18.284 56.6223 18.296 56.5946 18.3137C56.5669 18.3313 56.5429 18.3543 56.5241 18.3812L40.8861 40.7602C40.8376 40.6855 40.7717 40.6237 40.6941 40.5802L33.9741 36.7012C33.6421 36.5092 33.1041 36.5092 32.7711 36.7032L25.9041 40.7292C25.8581 40.7562 25.8341 40.7892 25.8001 40.8192L12.9481 18.4002C12.9322 18.3709 12.9107 18.345 12.8847 18.3241C12.8587 18.3033 12.8288 18.2878 12.7968 18.2786C12.7647 18.2695 12.7312 18.2668 12.6981 18.2709C12.665 18.2749 12.633 18.2854 12.6041 18.302C12.5752 18.3185 12.5498 18.3407 12.5296 18.3671C12.5093 18.3936 12.4946 18.4239 12.4862 18.4561C12.4778 18.4884 12.4759 18.522 12.4807 18.555C12.4855 18.588 12.4968 18.6196 12.5141 18.6482L21.6941 34.6622L14.1071 39.0782C13.3081 39.5312 13.3601 40.1072 13.3251 40.2132L13.3111 43.7402L9.27706 46.0882C8.02406 46.8062 8.01706 48.0892 9.28706 48.8182L11.0881 49.8582L9.40606 50.8382C8.30606 51.4782 8.31606 52.5082 9.41606 53.1382L31.5761 65.9382C32.6761 66.5682 34.4561 66.5782 35.5561 65.9382L57.5661 53.1482C58.6661 52.5082 58.6561 51.4782 57.5561 50.8382L55.8851 49.8712L57.6971 48.8182C58.9571 48.0942 58.9541 46.8082 57.6771 46.0882ZM13.8221 41.1502C13.8631 41.1842 14.1021 41.3442 14.1071 41.3482L31.8371 51.5882C32.7891 52.1432 34.2971 52.1522 35.2671 51.5882L52.8691 41.3492C52.9701 41.2932 53.0621 41.2302 53.1441 41.1652L53.1221 46.5342C53.1221 46.7872 52.9341 47.0372 52.5931 47.2372L34.9901 57.4642C34.1971 57.9232 32.8551 57.9232 32.0621 57.4642L14.3331 47.2252C13.9901 47.0342 13.8001 46.7852 13.8001 46.5262L13.8221 41.1502ZM14.3571 39.5082L21.9451 35.1012L25.6321 41.5332C25.6554 41.5741 25.6897 41.6077 25.7311 41.6302L33.3561 45.7102C33.4321 45.7502 33.5201 45.7502 33.5961 45.7092L40.8201 41.6862C40.8527 41.6673 40.881 41.6418 40.9031 41.6112L45.3161 35.2952L52.6061 39.5082C52.9561 39.7082 53.1461 39.9682 53.1461 40.2182C53.1464 40.2829 53.1355 40.3472 53.1141 40.4082C53.0971 40.4552 53.0681 40.4982 53.0391 40.5432C53.0291 40.5592 53.0231 40.5762 53.0111 40.5922C52.9221 40.7092 52.7911 40.8182 52.6161 40.9182L35.0161 51.1482C34.2261 51.6082 32.8761 51.6082 32.0861 51.1482L22.5001 45.6152L14.3631 40.9152C13.6351 40.4992 13.6621 39.9052 14.3571 39.5082ZM35.4271 61.1882C34.4071 61.7782 32.7371 61.7782 31.7071 61.1782L9.53706 48.3882C8.62006 47.8582 8.58706 47.0672 9.53706 46.5182L13.3091 44.3222L13.3001 46.5252C13.3001 46.9752 13.5801 47.3792 14.0861 47.6612L31.8121 57.8972C32.7761 58.4542 34.2781 58.4532 35.2401 57.8972L52.8461 47.6692C53.3461 47.3742 53.6221 46.9722 53.6221 46.5352L53.6321 44.3192L57.4271 46.5182C58.3451 47.0372 58.3931 47.8282 57.4471 48.3882L35.4271 61.1882Z" fill="white"/>
<path d="M24.5069 50.7342C24.5643 50.7668 24.6322 50.7755 24.696 50.7582C24.7597 50.7409 24.8139 50.6991 24.847 50.6419C24.88 50.5847 24.889 50.5168 24.8721 50.453C24.8553 50.3892 24.8138 50.3346 24.7569 50.3012L15.9619 45.2432C15.9334 45.2267 15.902 45.2161 15.8693 45.2118C15.8367 45.2075 15.8036 45.2097 15.7718 45.2182C15.74 45.2268 15.7102 45.2415 15.6842 45.2616C15.6581 45.2817 15.6363 45.3067 15.6199 45.3352C15.5869 45.3928 15.578 45.4611 15.5953 45.5252C15.6125 45.5893 15.6545 45.644 15.7119 45.6772L24.5069 50.7342ZM40.7469 17.7032L43.8769 19.5232C43.8849 19.5282 43.8969 19.5262 43.9059 19.5302C45.2429 20.2892 46.8389 19.8892 48.1639 19.1232C51.3539 17.2812 53.9429 12.7952 53.9329 9.12322C53.9269 7.31822 53.3009 5.96122 52.1699 5.29622C52.1659 5.29422 52.1659 5.28822 52.1619 5.28622L52.1589 5.28422L49.0319 3.46722C47.8819 2.80122 46.3589 2.93922 44.7429 3.85722C41.5529 5.70022 38.9669 10.1822 38.9779 13.8502C38.9779 15.6682 39.6059 17.0362 40.7469 17.7032ZM53.4329 9.12522C53.4429 12.6372 50.9669 16.9282 47.9139 18.6892C46.4759 19.5202 45.1339 19.6622 44.1399 19.0912C42.9969 18.4322 42.6069 16.9862 42.6069 15.6682C42.5959 12.1552 45.0889 7.86622 48.1269 6.11222C49.5649 5.28222 50.9029 5.14222 51.8969 5.71422C52.8829 6.28022 53.4279 7.49222 53.4329 9.12422V9.12522ZM39.4779 13.8482C39.4669 10.3412 41.9419 6.05322 44.9909 4.29122C46.1589 3.62722 47.6149 3.22422 48.7809 3.89922L50.4469 4.86722C49.7789 4.88422 48.7929 5.14722 47.8719 5.67622C44.6719 7.52622 42.0919 12.0282 42.1019 15.6662C42.1049 16.7362 42.3729 17.6942 42.6719 18.2432L40.9989 17.2712C40.0179 16.6982 39.4779 15.4822 39.4779 13.8492V13.8482ZM16.9219 16.2382L20.0509 18.0582C20.0609 18.0632 20.0709 18.0612 20.0809 18.0662C21.4159 18.8242 23.0119 18.4232 24.3379 17.6582C27.5279 15.8162 30.1159 11.3302 30.1069 7.65822C30.1019 5.85222 29.4749 4.49522 28.3429 3.83022C28.3399 3.82822 28.3399 3.82322 28.3359 3.82122C28.3339 3.82122 28.3339 3.81922 28.3329 3.81922L25.2059 2.00222C24.0539 1.33622 22.5309 1.47322 20.9179 2.39222C17.7279 4.23422 15.1409 8.71821 15.1519 12.3862C15.1519 14.2032 15.7809 15.5722 16.9219 16.2382ZM29.6069 7.66022C29.6169 11.1722 27.1409 15.4632 24.0879 17.2242C22.6499 18.0552 21.3099 18.1972 20.3149 17.6262C19.1739 16.9702 18.7809 15.5182 18.7809 14.2032C18.7759 12.4362 19.4009 10.4732 20.4129 8.73222C21.4129 7.01922 22.7849 5.52222 24.3019 4.64722C25.4619 3.97722 26.9249 3.58722 28.0719 4.24922C29.0569 4.81522 29.6019 6.02722 29.6069 7.66022ZM15.6519 12.3842C15.6409 8.87622 18.1149 4.58822 21.1669 2.82622C22.3439 2.15622 23.7939 1.76222 24.9549 2.43422L26.6199 3.40222C25.7699 3.42222 24.7629 3.79822 24.0469 4.21122C22.3839 5.17122 20.8889 6.85222 19.8369 8.75822C18.8669 10.5082 18.2719 12.4482 18.2769 14.2022C18.2809 15.2802 18.5329 16.2022 18.8459 16.7782L17.1739 15.8062C16.1929 15.2332 15.6519 14.0182 15.6519 12.3852V12.3842Z" fill="white"/>
<path d="M25.1639 10.0381C25.6529 9.75612 26.0519 9.06812 26.0499 8.50612C26.0489 7.94812 25.6469 7.72212 25.1579 8.00512L24.6359 8.30612L24.6329 7.27412L24.1019 7.58012L24.1049 8.61312L23.7279 8.83012L23.7249 7.79812L23.1969 8.10312L23.1999 9.13512L22.1349 9.75012L22.1359 10.2981L22.7589 9.93812L22.7679 13.3111L22.2519 13.6091L22.1259 14.3281L23.2129 13.7011L23.2159 14.6011L23.7439 14.2961L23.7409 13.3961L24.1169 13.1781L24.1199 14.0781L24.6509 13.7721L24.6489 12.8721L25.1619 12.5761C25.7689 12.2251 26.2589 11.3731 26.2569 10.6711C26.2549 9.97712 25.7669 9.69612 25.1639 10.0381ZM24.3239 8.98512C24.6369 8.80512 24.8899 8.94912 24.8909 9.31212C24.8909 9.66712 24.6409 10.1021 24.3279 10.2821L23.5969 10.7051L23.5929 9.40812L24.3239 8.98512ZM24.5339 12.3721L23.5599 12.9341L23.5569 11.5641L24.5309 11.0011C24.8589 10.8111 25.1269 10.9681 25.1279 11.3441C25.1289 11.7241 24.8619 12.1821 24.5339 12.3721ZM48.9899 11.5031C49.4779 11.2211 49.8779 10.5331 49.8759 9.97112C49.8739 9.41312 49.4719 9.18712 48.9839 9.47012L48.4619 9.77012L48.4589 8.73812L47.9269 9.04512L47.9299 10.0781L47.5539 10.2951L47.5509 9.26312L47.0229 9.56712L47.0259 10.6001L45.9609 11.2151L45.9619 11.7631L46.5839 11.4031L46.5939 14.7761L46.0779 15.0741L45.9519 15.7931L47.0389 15.1661L47.0409 16.0661L47.5699 15.7601L47.5669 14.8601L47.9439 14.6431L47.9459 15.5431L48.4769 15.2361L48.4749 14.3361L48.9879 14.0401C49.5949 13.6901 50.0849 12.8371 50.0829 12.1361C50.0809 11.4421 49.5929 11.1611 48.9899 11.5031ZM48.1499 10.4501C48.4629 10.2701 48.7159 10.4141 48.7169 10.7761C48.7179 11.1321 48.4669 11.5671 48.1539 11.7481L47.4229 12.1701L47.4189 10.8731L48.1499 10.4501ZM48.3599 13.8361L47.3859 14.3991L47.3829 13.0291L48.3569 12.4661C48.6849 12.2761 48.9529 12.4331 48.9539 12.8091C48.9539 13.1891 48.6879 13.6471 48.3599 13.8361ZM25.5999 29.4201C25.5999 31.2361 26.2289 32.6041 27.3699 33.2721L30.4999 35.0911C30.5069 35.0951 30.5139 35.0931 30.5219 35.0971C31.8529 35.8571 33.4529 35.4611 34.7859 34.6911C37.9759 32.8491 40.5649 28.3641 40.5549 24.6921C40.5489 22.8851 39.9229 21.5281 38.7909 20.8641C38.7879 20.8621 38.7879 20.8571 38.7839 20.8551L35.6539 19.0351C34.5019 18.3681 32.9789 18.5071 31.3659 19.4251C28.1759 21.2681 25.5889 25.7521 25.5999 29.4201ZM40.0549 24.6941C40.0649 28.2061 37.5889 32.4961 34.5359 34.2581C33.0959 35.0881 31.7579 35.2311 30.7629 34.6601C29.6229 34.0041 29.2289 32.5561 29.2289 31.2361C29.2239 29.6391 29.7389 27.8821 30.5839 26.2731C31.5969 24.3511 33.0859 22.6411 34.7499 21.6811C37.6729 19.9911 40.0449 21.2651 40.0549 24.6941ZM31.6149 19.8591C32.7919 19.1891 34.2429 18.7951 35.4039 19.4681L37.0689 20.4361C37.0289 20.4371 36.9889 20.4461 36.9489 20.4481C36.2689 20.4871 35.3919 20.7281 34.4949 21.2441C32.7899 22.2301 31.2609 23.9721 30.2049 25.9391C29.2839 27.6501 28.7199 29.5291 28.7249 31.2351C28.7279 32.0351 28.8659 32.9301 29.2419 33.6951C29.2609 33.7331 29.2749 33.7751 29.2939 33.8121L27.6209 32.8411C26.6399 32.2661 26.0999 31.0511 26.0999 29.4191V29.4181C26.0899 25.9101 28.5629 21.6221 31.6149 19.8591ZM63.7799 5.77812L62.4729 4.47212C62.4447 4.44346 62.411 4.42069 62.374 4.40515C62.3369 4.38961 62.2971 4.38161 62.2569 4.38161C62.2167 4.38161 62.1768 4.38961 62.1398 4.40515C62.1027 4.42069 62.0691 4.44346 62.0409 4.47212L60.7399 5.77212C60.6827 5.82947 60.6506 5.90715 60.6506 5.98812C60.6506 6.06909 60.6827 6.14676 60.7399 6.20412L62.0479 7.51212C62.1049 7.57012 62.1819 7.60212 62.2629 7.60212C62.3031 7.60235 62.3429 7.59451 62.38 7.57905C62.4171 7.56359 62.4507 7.54083 62.4789 7.51212L63.7799 6.21012C63.837 6.15293 63.869 6.07543 63.869 5.99462C63.869 5.91381 63.837 5.8353 63.7799 5.77812ZM6.22386 4.09912C6.21545 3.82717 6.10151 3.56917 5.90617 3.37978C5.71083 3.19039 5.44944 3.08447 5.17736 3.08447C4.90528 3.08447 4.64389 3.19039 4.44855 3.37978C4.25321 3.56917 4.13927 3.82717 4.13086 4.09912C4.13927 4.37107 4.25321 4.62906 4.44855 4.81846C4.64389 5.00785 4.90528 5.11377 5.17736 5.11377C5.44944 5.11377 5.71083 5.00785 5.90617 4.81846C6.10151 4.62906 6.21545 4.37107 6.22386 4.09912ZM62.4459 18.4491C62.2269 18.4621 62.0212 18.5582 61.8708 18.7177C61.7204 18.8773 61.6366 19.0883 61.6366 19.3076C61.6366 19.5269 61.7204 19.7379 61.8708 19.8975C62.0212 20.0571 62.2269 20.1532 62.4459 20.1661C62.6744 20.1667 62.8938 20.0765 63.056 19.9155C63.2181 19.7544 63.3098 19.5357 63.3109 19.3071C63.3098 19.0787 63.2181 18.86 63.0559 18.6991C62.8937 18.5382 62.6743 18.4483 62.4459 18.4491ZM5.97586 17.8341C5.16486 17.8341 4.50286 18.4941 4.50286 19.3071C4.50286 20.1201 5.16486 20.7811 5.97686 20.7811C6.79686 20.7811 7.46186 20.1211 7.46186 19.3071C7.46186 18.4931 6.79586 17.8341 5.97686 17.8341H5.97586ZM13.3859 32.7961C13.4309 32.8391 13.4899 32.8641 13.5519 32.8641C13.6139 32.8641 13.6729 32.8401 13.7169 32.7961L14.7119 31.8011C14.7336 31.7795 14.7508 31.7538 14.7625 31.7254C14.7743 31.6971 14.7803 31.6668 14.7803 31.6361C14.7803 31.6055 14.7743 31.5751 14.7625 31.5468C14.7508 31.5185 14.7336 31.4928 14.7119 31.4711L13.7119 30.4731C13.6902 30.4514 13.6645 30.4342 13.6362 30.4224C13.6079 30.4107 13.5775 30.4046 13.5469 30.4046C13.5162 30.4046 13.4858 30.4107 13.4575 30.4224C13.4292 30.4342 13.4035 30.4514 13.3819 30.4731L12.3879 31.4671C12.3661 31.4888 12.3489 31.5145 12.3372 31.5428C12.3254 31.5711 12.3194 31.6015 12.3194 31.6321C12.3194 31.6628 12.3254 31.6931 12.3372 31.7214C12.3489 31.7498 12.3661 31.7755 12.3879 31.7971L13.3859 32.7961ZM54.3179 31.9431C54.2949 31.9432 54.2723 31.9478 54.2511 31.9568C54.23 31.9657 54.2109 31.9787 54.1949 31.9951L53.4499 32.7391C53.4336 32.7553 53.4206 32.7745 53.4118 32.7957C53.403 32.8169 53.3984 32.8397 53.3984 32.8626C53.3984 32.8856 53.403 32.9083 53.4118 32.9295C53.4206 32.9507 53.4336 32.9699 53.4499 32.9861L54.1979 33.7331C54.2308 33.7655 54.2751 33.7837 54.3214 33.7837C54.3676 33.7837 54.4119 33.7655 54.4449 33.7331L55.1889 32.9891C55.2052 32.9729 55.2181 32.9537 55.2269 32.9325C55.2357 32.9113 55.2403 32.8886 55.2403 32.8656C55.2403 32.8427 55.2357 32.8199 55.2269 32.7987C55.2181 32.7775 55.2052 32.7583 55.1889 32.7421L54.4409 31.9941C54.4081 31.9618 54.3639 31.9429 54.3179 31.9431Z" fill="white"/>
</svg>
