<svg width="26" height="12" viewBox="0 0 26 12" fill="none" xmlns="http://www.w3.org/2000/svg">
<g clip-path="url(#clip0_366_497)">
<path d="M25.7086 5.9994C25.7086 5.8411 25.6502 5.6827 25.5252 5.5577L20.4669 0.499402C20.2252 0.257702 19.8252 0.257702 19.5835 0.499402C19.3419 0.741102 19.3419 1.1411 19.5835 1.3827L24.2002 5.9994L19.5835 10.6161C19.3419 10.8577 19.3419 11.2577 19.5835 11.4994C19.8252 11.7411 20.2252 11.7411 20.4669 11.4994L25.5252 6.44108C25.6502 6.31608 25.7086 6.15774 25.7086 5.9994Z" fill="#495057"/>
<path d="M25.5665 6C25.5665 5.6583 25.2832 5.375 24.9415 5.375L0.916504 5.375C0.574834 5.375 0.291504 5.6583 0.291504 6C0.291504 6.34167 0.574834 6.625 0.916504 6.625L24.9415 6.625C25.2832 6.625 25.5665 6.34167 25.5665 6Z" fill="#495057"/>
</g>
<defs>
<clipPath id="clip0_366_497">
<rect width="12" height="26" fill="white" transform="translate(0 12) rotate(-90)"/>
</clipPath>
</defs>
</svg>
